<svg width="260" height="260" viewBox="0 0 260 260" fill="none" xmlns="http://www.w3.org/2000/svg">
<rect width="260" height="260" fill="black"/>
<g filter="url(#filter0_f_3_8)">
<rect x="212.419" y="80.9149" width="197.738" height="6" transform="rotate(145 212.419 80.9149)" fill="black"/>
<rect x="211.722" y="80.7921" width="196.738" height="5" transform="rotate(145 211.722 80.7921)" stroke="#FFD700"/>
</g>
<path d="M60.9785 130L61.3545 127.266L54.9971 125.762L58.4492 115.234H72.7705L76.4961 125.591L70.6514 127.471L70.2412 130H87.8438L88.1514 127.266L83.4688 125.762L70.1387 86.6602L64.9775 87.7197L50.3828 125.591L45.29 127.471L44.9824 130H60.9785ZM66.1055 94.6582L71.7793 111.748H59.748L66.1055 94.6582ZM104.763 131.025C106.882 131.025 108.933 130.615 110.915 129.795C112.92 128.952 114.401 127.961 115.358 126.821L114.504 124.839C113.479 125.5 112.453 126.012 111.428 126.377C110.402 126.742 109.126 126.924 107.6 126.924C105.389 126.924 103.521 126.172 101.994 124.668C100.467 123.164 99.3281 121.307 98.5762 119.097C97.8242 116.886 97.4482 114.744 97.4482 112.671C97.4482 110.62 97.7217 108.831 98.2686 107.305C98.8382 105.755 99.6243 104.559 100.627 103.716C101.652 102.873 102.837 102.451 104.182 102.451C105.503 102.451 106.574 102.987 107.395 104.058C108.238 105.106 109.001 106.439 109.685 108.057C111.075 107.965 112.146 107.601 112.897 106.963C113.649 106.325 114.025 105.493 114.025 104.468C114.025 103.534 113.718 102.668 113.103 101.87C112.51 101.073 111.599 100.435 110.368 99.9561C109.138 99.4775 107.611 99.2383 105.788 99.2383C103.282 99.2383 100.912 99.9333 98.6787 101.323C96.4684 102.69 94.6797 104.639 93.3125 107.168C91.9453 109.674 91.2617 112.557 91.2617 115.815C91.2617 118.55 91.82 121.079 92.9365 123.403C94.0531 125.728 95.6367 127.585 97.6875 128.975C99.7383 130.342 102.097 131.025 104.763 131.025ZM121.306 121.113C121.283 124.668 121.91 127.174 123.186 128.633C124.484 130.068 126.285 130.786 128.586 130.786C130.5 130.786 132.255 130.342 133.85 129.453C135.445 128.564 136.778 127.334 137.849 125.762L137.131 123.916C137.131 123.939 136.857 124.121 136.311 124.463C135.786 124.805 135.16 125.124 134.431 125.42C133.701 125.693 132.961 125.83 132.209 125.83C131.001 125.83 130.033 125.625 129.304 125.215C128.575 124.805 128.039 124.11 127.697 123.13C127.355 122.15 127.185 120.806 127.185 119.097L127.287 103.989H136.721L137.028 100.981H127.355V92.8467H125.544C124.313 94.5329 122.946 96.2077 121.442 97.8711C119.938 99.5345 118.492 100.936 117.102 102.075V103.921H121.442L121.306 121.113ZM147.761 93.4277C148.49 93.4277 149.174 93.2454 149.812 92.8809C150.472 92.4935 150.985 91.9808 151.35 91.3428C151.737 90.7048 151.931 90.0098 151.931 89.2578C151.931 88.1641 151.521 87.2412 150.7 86.4893C149.88 85.7373 148.9 85.3613 147.761 85.3613C146.667 85.3613 145.71 85.7373 144.89 86.4893C144.092 87.2184 143.693 88.1185 143.693 89.1895C143.693 89.9414 143.876 90.6478 144.24 91.3086C144.605 91.9466 145.095 92.4593 145.71 92.8467C146.348 93.234 147.032 93.4277 147.761 93.4277ZM156.032 130L156.408 127.266L150.939 126.035V100.605L150.085 99.751L140.48 100.537L140.036 103.135L145.197 105.015V126.035L140.036 127.3L139.626 130H156.032ZM160.783 104.16L170.285 130.957L174.626 130.342L183.957 104.092L187.648 102.69L188.059 100.161H174.968L174.489 102.725L179.992 104.16L173.43 123.369L167.004 104.092L171.96 102.69L172.233 100.161H156.955L156.613 102.725L160.783 104.16ZM202.38 131.025C204.613 131.025 206.698 130.627 208.635 129.829C210.594 129.009 212.258 127.881 213.625 126.445L212.907 124.634C211.791 125.226 210.811 125.659 209.968 125.933C209.125 126.206 208.384 126.377 207.746 126.445C207.108 126.491 206.242 126.514 205.148 126.514C203.143 126.514 201.434 125.944 200.021 124.805C198.632 123.643 197.572 122.161 196.843 120.361C196.114 118.561 195.703 116.704 195.612 114.79L212.155 114.585C212.292 113.993 212.417 113.241 212.531 112.329C212.645 111.395 212.702 110.666 212.702 110.142C212.702 107.817 212.292 105.846 211.472 104.229C210.674 102.588 209.58 101.357 208.19 100.537C206.8 99.694 205.262 99.2725 203.576 99.2725C201.298 99.2725 199.076 99.9219 196.911 101.221C194.746 102.52 192.969 104.388 191.579 106.826C190.212 109.264 189.528 112.113 189.528 115.371C189.528 118.675 190.132 121.512 191.34 123.882C192.548 126.252 194.131 128.04 196.091 129.248C198.073 130.433 200.17 131.025 202.38 131.025ZM201.901 102.622C205.046 102.622 206.618 104.741 206.618 108.979C206.618 109.321 206.595 109.743 206.55 110.244C206.527 110.723 206.481 111.087 206.413 111.338L195.681 112.124C195.795 110.028 196.159 108.273 196.774 106.86C197.412 105.425 198.187 104.365 199.099 103.682C200.01 102.975 200.944 102.622 201.901 102.622ZM67.3359 180H99.3281L101.276 168.55L98.0977 168.003L93.8936 176.582H74.4111L100.524 140.078V137.48H68.8057L68.4639 148.521L71.54 149.136L74.1719 140.728H92.5264L67.0625 176.445L67.3359 180ZM115.803 180.923C118.446 180.923 120.861 180.251 123.049 178.906C125.236 177.562 126.957 175.671 128.21 173.232C129.486 170.794 130.124 168.026 130.124 164.927C130.124 161.805 129.577 159.059 128.483 156.689C127.412 154.297 125.852 152.44 123.801 151.118C121.773 149.797 119.38 149.136 116.623 149.136C114.025 149.136 111.587 149.785 109.309 151.084C107.053 152.383 105.23 154.274 103.84 156.758C102.45 159.219 101.755 162.113 101.755 165.439C101.755 168.402 102.302 171.056 103.396 173.403C104.512 175.728 106.118 177.562 108.215 178.906C110.334 180.251 112.863 180.923 115.803 180.923ZM115.188 152.725C117.215 152.725 118.89 153.477 120.212 154.98C121.556 156.462 122.525 158.341 123.117 160.62C123.732 162.899 124.04 165.269 124.04 167.729C124.04 169.416 123.778 171.011 123.254 172.515C122.73 174.019 121.932 175.249 120.861 176.206C119.79 177.14 118.492 177.607 116.965 177.607C114.846 177.607 113.103 176.912 111.735 175.522C110.368 174.132 109.377 172.332 108.762 170.122C108.146 167.912 107.839 165.542 107.839 163.013C107.839 161.144 108.101 159.435 108.625 157.886C109.149 156.313 109.958 155.06 111.052 154.126C112.168 153.192 113.547 152.725 115.188 152.725ZM149.504 177.3L144.411 176.104V156.929C145.254 155.994 146.268 155.277 147.453 154.775C148.638 154.251 149.868 153.989 151.145 153.989C152.945 153.989 154.38 154.513 155.451 155.562C156.545 156.587 157.092 158.159 157.092 160.278V176.104L152.375 177.505L152.033 180H167.38L167.722 177.3L162.8 176.104V158.945C162.8 155.869 162.093 153.488 160.681 151.802C159.268 150.116 157.229 149.272 154.562 149.272C152.557 149.272 150.666 149.785 148.889 150.811C147.111 151.836 145.573 153.123 144.274 154.673H143.933L144.514 150.298L143.933 149.648L133.747 150.981L133.405 153.579L138.669 155.356V176.104L133.508 177.505L133.166 180H149.025L149.504 177.3ZM182.795 181.025C185.028 181.025 187.113 180.627 189.05 179.829C191.009 179.009 192.673 177.881 194.04 176.445L193.322 174.634C192.206 175.226 191.226 175.659 190.383 175.933C189.54 176.206 188.799 176.377 188.161 176.445C187.523 176.491 186.657 176.514 185.563 176.514C183.558 176.514 181.849 175.944 180.437 174.805C179.047 173.643 177.987 172.161 177.258 170.361C176.529 168.561 176.118 166.704 176.027 164.79L192.57 164.585C192.707 163.993 192.832 163.241 192.946 162.329C193.06 161.395 193.117 160.666 193.117 160.142C193.117 157.817 192.707 155.846 191.887 154.229C191.089 152.588 189.995 151.357 188.605 150.537C187.215 149.694 185.677 149.272 183.991 149.272C181.713 149.272 179.491 149.922 177.326 151.221C175.161 152.52 173.384 154.388 171.994 156.826C170.627 159.264 169.943 162.113 169.943 165.371C169.943 168.675 170.547 171.512 171.755 173.882C172.963 176.252 174.546 178.04 176.506 179.248C178.488 180.433 180.585 181.025 182.795 181.025ZM182.316 152.622C185.461 152.622 187.033 154.741 187.033 158.979C187.033 159.321 187.01 159.743 186.965 160.244C186.942 160.723 186.896 161.087 186.828 161.338L176.096 162.124C176.21 160.028 176.574 158.273 177.189 156.86C177.827 155.425 178.602 154.365 179.514 153.682C180.425 152.975 181.359 152.622 182.316 152.622Z" fill="#FFD700"/>
<rect x="36.5" y="60.5" width="188" height="5" fill="#EEEEEE" stroke="#FFD700"/>
<rect x="36.5" y="206.5" width="188" height="5" stroke="#FFD700"/>
<defs>
<filter id="filter0_f_3_8" x="42.9999" y="72" width="173.419" height="126.333" filterUnits="userSpaceOnUse" color-interpolation-filters="sRGB">
<feFlood flood-opacity="0" result="BackgroundImageFix"/>
<feBlend mode="normal" in="SourceGraphic" in2="BackgroundImageFix" result="shape"/>
<feGaussianBlur stdDeviation="2" result="effect1_foregroundBlur_3_8"/>
</filter>
</defs>
</svg>
