<?xml version="1.0" standalone="no"?>
<!DOCTYPE svg PUBLIC "-//W3C//DTD SVG 20010904//EN"
 "http://www.w3.org/TR/2001/REC-SVG-20010904/DTD/svg10.dtd">
<svg version="1.0" xmlns="http://www.w3.org/2000/svg"
 width="260.000000pt" height="260.000000pt" viewBox="0 0 260.000000 260.000000"
 preserveAspectRatio="xMidYMid meet">
<metadata>
Created by potrace 1.14, written by Peter Selinger 2001-2017
</metadata>
<g transform="translate(0.000000,260.000000) scale(0.100000,-0.100000)"
fill="#000000" stroke="none">
<path d="M0 1300 l0 -1300 1300 0 1300 0 0 1300 0 1300 -1300 0 -1300 0 0
-1300z m2250 670 l0 -30 -945 0 -945 0 0 30 0 30 945 0 945 0 0 -30z m-746
-236 c31 -30 8 -69 -36 -62 -30 4 -38 46 -12 65 23 17 29 16 48 -3z m-736
-197 c53 -154 70 -191 89 -200 12 -5 23 -16 23 -24 0 -10 -21 -13 -90 -13 -75
0 -88 2 -84 15 4 8 11 15 18 15 34 1 39 17 21 69 l-17 51 -72 0 -73 0 -12 -41
c-7 -23 -15 -47 -17 -54 -4 -8 6 -16 25 -20 17 -4 31 -13 31 -21 0 -11 -18
-14 -80 -14 -84 0 -99 10 -52 34 24 12 38 41 96 193 38 98 73 184 79 191 6 7
19 12 30 10 16 -2 32 -38 85 -191z m502 93 l0 -40 50 0 c38 0 50 -4 50 -15 0
-11 -12 -15 -50 -15 l-50 0 0 -82 c0 -46 3 -93 6 -106 8 -26 44 -38 72 -23 29
16 37 -4 13 -28 -25 -25 -63 -35 -97 -27 -38 10 -54 59 -54 171 0 88 -1 95
-20 95 -11 0 -20 3 -20 6 0 9 84 103 93 104 4 0 7 -18 7 -40z m-166 -32 c33
-14 43 -45 22 -66 -15 -15 -18 -14 -45 16 -34 37 -38 38 -68 17 -45 -31 -49
-129 -8 -191 24 -38 59 -50 106 -37 51 13 54 -6 4 -30 -77 -37 -152 -9 -187
69 -55 126 62 274 176 222z m984 -13 c31 -26 46 -71 36 -111 -6 -23 -10 -24
-85 -24 -77 0 -79 0 -79 -25 0 -14 13 -39 28 -57 30 -33 72 -42 120 -25 34 13
27 -10 -10 -33 -62 -38 -141 -18 -178 43 -29 47 -27 143 3 187 24 36 79 70
114 70 12 0 35 -11 51 -25z m-578 -115 l0 -130 25 -6 c14 -3 25 -12 25 -20 0
-11 -18 -14 -80 -14 -62 0 -80 3 -80 14 0 8 11 17 25 20 25 6 25 8 25 111 0
103 -1 106 -25 115 -25 9 -31 21 -18 33 3 4 28 7 55 7 l48 0 0 -130z m210 116
c0 -8 -10 -18 -23 -23 l-23 -8 29 -95 30 -95 24 70 c45 127 44 123 17 129 -13
4 -24 13 -24 21 0 12 14 15 65 15 48 0 65 -4 65 -13 0 -8 -10 -18 -21 -23 -16
-7 -33 -42 -66 -134 -65 -184 -75 -185 -138 -5 -34 97 -53 136 -66 140 -11 4
-19 13 -19 21 0 11 17 14 75 14 58 0 75 -3 75 -14z m-720 -379 c0 -11 -156
-240 -227 -333 -30 -40 -21 -44 86 -44 l77 0 22 45 c12 26 29 45 38 45 13 0
15 -8 9 -52 -4 -29 -9 -56 -12 -60 -2 -5 -76 -8 -164 -8 -187 0 -187 0 -113
100 55 74 187 260 198 278 5 9 -13 12 -83 12 l-90 0 -12 -40 c-18 -60 -39 -52
-39 15 l0 55 155 0 c121 0 155 -3 155 -13z m251 -133 c37 -35 53 -84 47 -145
-9 -91 -85 -151 -171 -135 -39 7 -93 60 -103 102 -11 41 2 124 23 152 49 67
148 80 204 26z m346 12 c27 -23 28 -29 33 -138 5 -109 6 -113 28 -116 13 -2
21 -9 19 -15 -5 -16 -157 -22 -157 -7 0 6 11 15 25 20 24 9 25 13 25 101 0 72
-4 96 -17 111 -20 22 -61 23 -91 2 -20 -14 -22 -23 -22 -109 0 -93 1 -95 25
-101 14 -3 25 -12 25 -20 0 -11 -18 -14 -80 -14 -84 0 -104 13 -50 31 l30 11
0 99 c0 96 -1 100 -25 111 -34 15 -31 34 6 42 54 11 69 8 69 -15 0 -20 1 -19
43 5 53 32 78 33 114 2z m282 9 c34 -17 54 -60 49 -106 l-3 -34 -83 -3 -84 -3
6 -27 c16 -67 70 -100 135 -82 38 10 47 8 36 -10 -11 -18 -70 -40 -106 -40
-117 0 -173 174 -86 269 22 24 71 50 95 51 7 0 26 -7 41 -15z m371 -585 l0
-30 -945 0 -945 0 0 30 0 30 945 0 945 0 0 -30z"/>
<path d="M370 1970 c0 -20 7 -20 935 -20 928 0 935 0 935 20 0 20 -7 20 -935
20 -928 0 -935 0 -935 -20z"/>
<path d="M631 1573 c-13 -38 -26 -74 -29 -80 -3 -10 12 -13 56 -13 l60 0 -26
80 c-14 44 -29 80 -32 80 -3 0 -16 -30 -29 -67z"/>
<path d="M1982 1557 c-7 -8 -15 -28 -18 -45 l-6 -32 43 0 c62 0 75 10 63 52
-8 27 -15 34 -40 36 -17 2 -36 -3 -42 -11z"/>
<path d="M1101 1044 c-41 -52 -21 -174 33 -209 22 -15 31 -15 55 -6 51 22 67
102 35 181 -26 65 -86 82 -123 34z"/>
<path d="M1787 1053 c-8 -10 -19 -30 -22 -45 -7 -27 -6 -28 33 -28 57 0 72 8
72 39 0 49 -50 69 -83 34z"/>
<path d="M370 510 c0 -20 7 -20 935 -20 928 0 935 0 935 20 0 20 -7 20 -935
20 -928 0 -935 0 -935 -20z"/>
</g>
</svg>
